_________________________  Visit us at _________________________
  
http://p2pdl.com  ____________________________  http://p2pdl.com

Owl City, Yuna - Shine Your Way M4A+MP4 (1080p) x264 [VX] [P2PDL]

                          1080p Full HD MP4 Video
                                    +
                          128 Kbps/VBR M4A Audio

General
Complete name                  : Owl City, Yuna - Shine Your Way (1080p) x264 [VX].mp4
Format                         : MPEG-4
Format profile                 : Base Media / Version 2
Codec ID                       : mp42
File size                      : 35.7 MiB
Duration                       : 3mn 36s
Overall bit rate mode          : Variable
Overall bit rate               : 1 383 Kbps

Video
Format                         : AVC
Format/Info                    : Advanced Video Codec
Format profile                 : High@L4.0
Format settings, CABAC         : Yes
Width                          : 1 920 pixels
Height                         : 788 pixels
Display aspect ratio           : 2.40:1
Frame rate mode                : Variable
Frame rate                     : 23.976 fps
Color space                    : YUV
Chroma subsampling             : 4:2:0
Bit depth                      : 8 bits
Scan type                      : Progressive
Bits/(Pixel*Frame)             : 0.034
Stream size                    : 32.3 MiB (91%)
Writing library                : x264 core 129

Audio
ID                             : 2
Format                         : AAC
Format/Info                    : Advanced Audio Codec
Format profile                 : LC
Codec ID                       : 40
Duration                       : 3mn 36s
Bit rate mode                  : Variable
Bit rate                       : 124 Kbps
Channel(s)                     : 2 channels
Channel positions              : Front: L R
Sampling rate                  : 48.0 KHz
Stream size                    : 3.21 MiB (9%)


Subtitles                      : No

Screens:
 
http://imgr.us/images/kske07ra5xudw8bstlpz.jpg
------------------------------------------------------------------------

Notes:

* Recommended to use latest version VLC Media Player.
* Install shark007 codecs in case of any kind of problem in playback (For non-VLC Media Player users).
* Alternatively, install Core AVC codecs, the fastest decoder that there is coupled with Community Center Codec Pack and play on Windows Media Player Classic.

Greets to: VYTO, a2zRG, MusiK_KinG, Kuroyukihime, Caveman, Ash968, Neon, TwentyForty, Masta, TorDigger and staff members at ExtraTorrent, TPB, H33T, KAT, 1337x, PublicHD, Ahashare, TorrentMafia, Limetorrents, BTScene, P2PDL, and all others

Encoder Notes: Looking For Early Access To Anything You Can Provide DVDScr, R5, DVDRips, BluRay, Direct Audio, Early Music
Releases, Seedboxes, Links, Dedicated Servers anything u can provide, Advance / Promo CDs/DVDs. If You Got anything to
offer contact me at "prg@hush.com"